{"glyphs":{":":{"x_min":0,"x_max":191,"ha":191,"o":"m 75 428 l 75 531 l 134 531 l 134 428 z m 75 76 l 75 178 l 134 178 l 134 76 z"},"$":{"x_min":0,"x_max":451,"ha":451,"o":"m 232 -94 l 232 -10 q 59 -7 42 200 l 89 215 q 94 180 100 155 q 106 129 117 106 q 128 82 144 67 q 160 52 183 43 q 207 35 238 35 q 367 35 367 165 q 367 215 342 256 q 317 297 262 352 l 114 499 q 43 569 43 653 q 43 729 88 772 q 132 815 208 818 l 208 913 l 238 913 l 238 818 q 317 814 360 768 q 403 721 409 616 l 363 605 q 355 693 325 734 q 294 775 227 775 l 222 775 q 163 774 128 745 q 93 716 93 657 q 93 625 106 596 q 120 567 152 534 l 298 390 q 354 334 386 281 q 418 228 418 168 q 418 87 376 42 q 334 -3 261 -9 l 261 -94 z"},"?":{"x_min":0,"x_max":466,"ha":466,"o":"m 179 0 l 179 73 l 231 73 l 231 0 z m 181 200 l 181 323 q 280 389 322 456 q 365 524 365 608 q 365 689 326 731 q 287 773 230 773 q 176 773 143 748 q 110 722 110 675 q 110 658 114 642 l 122 606 l 74 594 l 65 631 q 60 656 60 679 q 60 746 108 783 q 157 820 231 820 q 269 820 302 807 q 335 793 361 768 q 386 743 401 701 q 416 660 416 607 q 416 513 370 443 q 324 374 227 308 l 227 200 z"},"<":{"x_min":0,"x_max":357,"ha":357,"o":"m 300 77 l 29 282 l 29 333 l 300 547 l 300 490 l 71 308 l 300 133 z"},"'":{"x_min":0,"x_max":238,"ha":238,"o":"m 79 580 l 79 810 l 134 810 l 108 580 z"},"=":{"x_min":0,"x_max":392,"ha":392,"o":"m 49 451 l 49 495 l 342 495 l 342 451 z m 49 288 l 49 333 l 342 333 l 342 288 z"},"a":{"x_min":0,"x_max":379,"ha":379,"o":"m 167 35 q 202 35 229 58 q 256 81 274 116 l 274 306 q 176 255 150 237 q 109 209 98 175 q 91 154 91 125 q 91 77 113 56 q 135 35 167 35 z m 154 -9 q 102 -9 70 26 q 38 61 38 117 q 38 156 47 181 q 55 207 83 233 q 110 260 153 284 q 196 309 274 345 l 274 386 q 274 450 266 484 q 258 519 241 533 q 224 547 194 547 q 175 547 160 542 q 145 538 131 527 q 117 516 109 493 q 102 471 102 438 l 102 422 l 50 423 q 50 437 50 438 q 52 517 89 552 q 125 587 196 587 q 268 587 298 542 q 327 497 327 392 l 327 101 q 327 18 330 0 l 284 0 q 277 65 275 77 q 262 39 229 15 q 196 -9 154 -9 z"},"L":{"x_min":0,"x_max":373,"ha":373,"o":"m 75 0 l 75 810 l 129 810 l 129 43 l 374 43 l 374 0 z"},"3":{"x_min":0,"x_max":485,"ha":485,"o":"m 238 -11 q 68 -11 68 180 l 68 195 l 118 195 l 118 179 q 119 106 147 69 q 176 32 238 32 q 268 32 291 41 q 313 49 332 69 q 351 89 361 126 q 371 163 371 215 q 371 398 241 400 l 218 400 l 218 447 l 241 447 q 311 447 341 488 q 371 529 371 620 q 371 776 250 776 q 183 776 151 742 q 119 708 118 629 l 118 617 l 68 617 l 68 630 q 68 720 110 770 q 153 819 249 819 q 294 819 329 804 q 363 789 384 761 q 405 734 415 698 q 426 663 426 620 q 426 531 394 482 q 363 433 311 422 q 332 417 351 404 q 370 391 387 367 q 405 344 415 305 q 426 266 426 216 q 426 110 380 50 q 335 -11 238 -11 z"},";":{"x_min":0,"x_max":204,"ha":204,"o":"m 75 438 l 75 542 l 134 542 l 134 438 z m 81 -17 l 67 6 q 93 23 101 39 q 109 55 109 85 l 75 85 l 75 182 l 138 182 l 138 97 q 138 49 126 24 q 114 0 81 -17 z"},"J":{"x_min":0,"x_max":265,"ha":265,"o":"m 8 -45 l 8 -2 q 39 -2 59 0 q 79 1 94 9 q 109 16 116 25 q 124 34 129 54 q 134 73 135 94 q 136 114 136 150 l 136 810 l 190 810 l 190 144 q 190 108 188 84 q 186 61 180 38 q 175 15 164 0 q 154 -14 137 -25 q 120 -36 95 -40 q 70 -45 36 -45 z"},"V":{"x_min":0,"x_max":480,"ha":480,"o":"m 220 0 l 24 810 l 78 810 l 246 95 l 403 810 l 456 810 l 271 0 z"},"\"":{"x_min":0,"x_max":341,"ha":341,"o":"m 211 580 l 211 810 l 265 810 l 240 580 z m 79 580 l 79 810 l 134 810 l 108 580 z"},"7":{"x_min":0,"x_max":462,"ha":462,"o":"m 173 0 l 338 766 l 76 766 l 76 810 l 393 810 l 393 783 l 225 0 z"},"S":{"x_min":0,"x_max":452,"ha":452,"o":"m 237 -10 q 59 -10 42 200 l 89 215 q 94 180 100 155 q 106 129 117 106 q 128 82 144 67 q 160 52 183 43 q 207 35 238 35 q 367 35 367 165 q 367 215 342 256 q 317 297 262 352 l 114 499 q 43 569 43 653 q 43 732 92 775 q 140 818 221 819 l 222 819 q 309 819 355 772 q 402 726 409 616 l 363 605 q 355 693 325 734 q 294 775 227 775 l 222 775 q 163 774 128 745 q 93 716 93 657 q 93 625 106 596 q 120 567 152 534 l 298 390 q 354 334 386 281 q 418 228 418 168 q 418 80 369 35 q 320 -10 237 -10 z"},"}":{"x_min":0,"x_max":238,"ha":238,"o":"m 23 -149 l 23 -108 q 73 -108 82 -86 q 90 -63 90 53 l 90 190 q 90 265 102 296 q 114 328 145 337 q 114 347 102 378 q 90 410 90 484 l 90 616 q 90 732 82 755 q 73 777 23 777 l 23 817 q 42 817 55 817 q 68 816 80 813 q 92 811 100 808 q 108 805 115 797 q 123 790 126 783 q 130 777 134 763 q 137 750 139 738 q 140 727 141 705 q 142 683 142 665 q 143 647 143 616 l 143 500 q 143 416 154 388 q 165 360 201 360 l 201 314 q 165 314 154 287 q 143 259 143 175 l 143 53 q 143 21 142 3 q 142 -15 141 -37 q 140 -59 139 -70 q 137 -81 134 -95 q 130 -109 126 -115 q 123 -121 115 -129 q 108 -137 100 -139 q 92 -142 80 -145 q 68 -148 55 -148 q 42 -149 23 -149 z"},"Z":{"x_min":0,"x_max":401,"ha":401,"o":"m 31 0 l 31 43 l 322 767 l 57 767 l 57 810 l 381 810 l 381 776 l 87 43 l 382 43 l 382 0 z"},"x":{"x_min":0,"x_max":375,"ha":375,"o":"m 20 0 l 161 301 l 29 578 l 83 578 l 191 349 l 298 578 l 353 578 l 216 296 l 355 0 l 305 0 l 187 246 l 72 0 z"},")":{"x_min":0,"x_max":255,"ha":255,"o":"m 31 -147 l 31 -109 q 45 -107 58 -101 q 70 -94 79 -82 q 89 -69 96 -56 q 104 -43 109 -21 q 115 1 119 20 q 123 38 125 69 q 127 100 129 122 q 130 144 131 182 q 131 220 132 245 q 132 271 132 314 l 132 334 l 132 354 q 132 409 132 439 q 131 470 130 516 q 129 562 126 587 q 124 613 119 647 q 114 680 107 699 q 99 718 89 737 q 78 755 64 765 q 49 774 31 776 l 31 815 q 59 813 81 804 q 103 794 118 774 q 134 753 146 731 q 157 710 164 672 q 171 634 176 604 q 180 573 182 521 q 184 469 184 433 q 185 396 185 334 q 185 272 184 236 q 184 200 182 148 q 180 97 176 67 q 171 37 164 -1 q 157 -39 146 -61 q 134 -82 118 -103 q 103 -124 81 -135 q 59 -145 31 -147 z"},"&":{"x_min":0,"x_max":602,"ha":602,"o":"m 228 447 q 296 512 336 568 q 375 625 375 680 q 375 725 345 750 q 315 774 263 774 q 206 774 176 741 q 146 707 146 654 q 146 611 164 567 q 183 522 228 447 z m 250 34 q 291 34 324 51 q 358 67 393 103 l 215 382 q 157 320 134 272 q 110 224 110 174 q 110 154 115 135 q 119 116 130 97 q 140 79 156 65 q 171 51 196 42 q 220 34 250 34 z m 250 -11 q 187 -11 143 15 q 98 42 78 83 q 57 124 57 175 q 57 232 88 289 q 118 347 193 420 q 136 513 115 559 q 94 604 94 653 q 94 732 140 776 q 186 819 265 819 q 340 819 384 781 q 427 743 427 678 q 427 620 382 556 q 336 492 247 414 l 423 136 q 455 176 478 240 q 500 305 501 351 l 550 351 q 550 296 523 224 q 497 152 453 102 q 479 68 502 56 q 524 43 553 43 l 553 -6 q 541 -6 531 -4 q 471 3 421 69 q 390 34 346 12 q 302 -11 250 -11 z"},"_":{"x_min":0,"x_max":325,"ha":325,"o":"m 0 -90 l 0 -46 l 325 -46 l 325 -90 z"},"v":{"x_min":0,"x_max":357,"ha":357,"o":"m 152 0 l 19 578 l 73 578 l 181 67 l 287 578 l 338 578 l 211 0 z"},"O":{"x_min":0,"x_max":516,"ha":516,"o":"m 58 230 l 58 584 q 58 627 63 661 q 69 696 84 726 q 98 756 121 776 q 144 796 178 807 q 212 819 258 819 q 314 819 354 802 q 393 785 416 752 q 438 720 448 679 q 458 638 458 584 l 458 229 q 458 186 452 151 q 447 116 433 85 q 419 54 396 34 q 374 13 339 1 q 304 -11 258 -11 q 211 -11 176 1 q 141 13 119 34 q 97 55 83 86 q 69 117 63 152 q 58 187 58 230 z m 403 218 l 403 592 q 403 636 396 667 q 390 699 374 724 q 358 749 329 762 q 300 774 258 774 q 215 774 186 762 q 157 749 141 724 q 125 699 119 667 q 113 636 113 592 l 113 218 q 113 174 119 143 q 125 111 141 85 q 157 60 186 47 q 215 34 258 34 q 300 34 329 47 q 358 60 374 85 q 390 111 396 143 q 403 174 403 218 z"},"(":{"x_min":0,"x_max":266,"ha":266,"o":"m 235 -147 q 208 -145 186 -135 q 164 -125 148 -103 q 132 -82 120 -61 q 109 -39 102 -1 q 95 37 91 66 q 86 96 84 148 q 83 200 82 236 q 82 271 82 333 q 82 396 82 432 q 83 468 84 521 q 86 573 91 604 q 95 634 102 672 q 109 710 120 731 q 132 753 148 774 q 164 794 186 804 q 208 813 235 815 l 235 776 q 221 774 208 768 q 196 761 187 749 q 177 736 170 723 q 162 710 157 688 q 151 666 147 647 q 144 629 141 599 q 139 568 137 545 q 136 523 135 485 q 135 447 135 422 q 134 397 134 354 l 134 333 l 134 307 q 134 254 135 223 q 135 192 136 147 q 137 103 140 77 q 143 51 148 19 q 152 -14 160 -33 q 167 -52 178 -70 q 188 -88 203 -98 q 217 -107 235 -109 z"},"C":{"x_min":0,"x_max":489,"ha":489,"o":"m 255 -11 q 208 -11 173 2 q 138 15 116 36 q 95 57 81 89 q 68 121 63 156 q 58 190 58 233 l 58 577 q 58 621 63 656 q 69 691 83 722 q 96 753 118 774 q 141 795 175 807 q 209 819 255 819 q 307 819 344 803 q 380 787 401 756 q 421 725 431 685 q 440 645 440 591 l 440 550 l 388 550 l 388 591 q 388 684 359 729 q 331 774 255 774 q 212 774 184 761 q 155 748 140 721 q 125 694 119 661 q 113 629 113 583 l 113 225 q 113 187 117 159 q 121 130 130 106 q 140 82 156 67 q 172 51 197 43 q 222 34 255 34 q 295 34 322 47 q 348 60 362 85 q 376 110 382 142 q 388 173 388 218 l 388 267 l 440 267 l 440 227 q 440 183 435 149 q 430 114 417 84 q 404 53 383 33 q 363 13 330 1 q 298 -11 255 -11 z"},"W":{"x_min":0,"x_max":706,"ha":706,"o":"m 175 0 l 34 809 l 82 810 l 201 107 l 331 792 l 383 792 l 517 107 l 625 810 l 672 810 l 541 0 l 495 0 l 357 709 l 222 0 z"},"A":{"x_min":0,"x_max":468,"ha":468,"o":"m 137 264 l 332 264 l 234 744 z m 32 0 l 202 810 l 265 810 l 436 0 l 381 0 l 339 224 l 129 224 l 86 0 z"},"f":{"x_min":0,"x_max":256,"ha":256,"o":"m 95 0 l 95 541 l 17 541 l 17 578 l 95 578 l 95 656 q 95 682 96 698 q 98 715 103 733 q 108 752 118 762 q 128 773 146 780 q 164 787 189 787 q 217 787 242 780 l 242 740 q 210 746 200 746 q 167 746 158 727 q 148 708 148 657 l 148 578 l 245 578 l 245 541 l 148 541 l 148 0 z"},"Q":{"x_min":0,"x_max":523,"ha":523,"o":"m 410 218 l 410 592 q 410 681 377 728 q 344 774 261 774 q 219 774 189 762 q 160 749 143 724 q 127 699 120 667 q 113 635 113 592 l 113 218 q 113 175 120 143 q 127 111 143 85 q 160 60 189 47 q 219 34 261 34 q 304 34 333 47 q 363 60 379 85 q 396 111 403 143 q 410 175 410 218 z m 429 -156 q 378 -131 291 -9 q 276 -11 261 -11 q 215 -11 179 1 q 144 13 121 34 q 98 55 84 86 q 69 117 63 152 q 58 187 58 230 l 58 584 q 58 638 68 679 q 79 721 102 753 q 125 785 165 802 q 205 819 261 819 q 317 819 358 802 q 398 785 421 752 q 444 720 454 679 q 465 638 465 584 l 465 229 q 465 136 435 77 q 404 18 333 -1 q 355 -30 386 -63 q 417 -96 434 -107 z"},"w":{"x_min":0,"x_max":566,"ha":566,"o":"m 128 0 l 33 578 l 80 578 l 160 61 l 259 578 l 311 578 l 412 63 l 487 578 l 534 578 l 441 0 l 386 0 l 286 507 l 188 0 z"},"-":{"x_min":0,"x_max":283,"ha":283,"o":"m 39 319 l 39 363 l 245 363 l 245 319 z"},"E":{"x_min":0,"x_max":393,"ha":393,"o":"m 74 0 l 74 810 l 354 810 l 354 766 l 129 766 l 129 441 l 314 441 l 314 399 l 129 399 l 129 43 l 357 43 l 357 0 z"},"s":{"x_min":0,"x_max":356,"ha":356,"o":"m 188 -9 q 120 -9 80 35 q 40 79 34 156 l 79 169 q 89 31 190 31 q 233 31 257 55 q 282 79 282 123 q 282 189 197 260 l 130 317 q 86 354 66 387 q 47 420 47 462 q 47 521 82 554 q 118 587 178 587 q 241 587 274 547 q 307 507 309 436 l 270 424 q 266 547 181 547 q 142 547 119 527 q 96 507 96 471 q 96 437 108 413 q 120 390 155 360 l 224 299 q 249 277 263 263 q 277 249 295 227 q 312 204 320 179 q 329 153 329 124 q 329 61 291 26 q 253 -9 188 -9 z"},">":{"x_min":0,"x_max":357,"ha":357,"o":"m 57 77 l 57 133 l 287 316 l 57 491 l 57 547 l 329 341 l 329 290 z"},"l":{"x_min":0,"x_max":186,"ha":186,"o":"m 67 0 l 67 810 l 120 810 l 120 0 z"},"8":{"x_min":0,"x_max":489,"ha":489,"o":"m 245 447 q 312 452 341 495 q 370 538 370 617 q 370 698 339 736 q 308 774 245 774 q 181 774 150 736 q 119 698 119 617 q 119 538 148 495 q 177 452 245 447 z m 376 212 q 376 298 345 345 q 314 393 245 401 q 175 393 144 345 q 112 298 112 212 q 112 116 146 74 q 181 32 245 32 q 309 32 342 74 q 376 116 376 212 z m 245 -11 q 60 -11 60 211 q 60 244 64 272 q 69 300 75 319 q 82 339 93 355 q 105 372 114 382 q 123 391 138 400 q 154 410 162 414 q 170 417 186 424 q 130 440 98 490 q 66 539 66 619 q 66 663 76 698 q 85 732 105 760 q 125 789 160 804 q 196 819 245 819 q 293 819 328 803 q 364 788 384 759 q 404 731 413 696 q 422 660 422 616 q 422 537 391 489 q 359 441 303 424 q 318 417 327 414 q 335 410 350 400 q 365 391 375 381 q 384 372 396 355 q 407 338 414 319 q 420 300 425 272 q 429 244 429 211 q 429 -11 245 -11 z"},"\\":{"x_min":0,"x_max":329,"ha":329,"o":"m 259 0 l 21 810 l 69 810 l 307 0 z"},"e":{"x_min":0,"x_max":379,"ha":379,"o":"m 99 334 l 284 334 l 284 379 q 284 414 282 437 q 281 459 275 482 q 270 505 260 518 q 251 531 234 539 q 218 547 194 547 q 160 547 140 534 q 121 521 110 483 q 99 446 99 378 z m 193 -9 q 165 -9 143 -3 q 121 3 102 18 q 83 33 71 58 q 59 83 52 122 q 46 161 46 214 l 46 368 q 46 421 53 460 q 60 500 72 524 q 83 548 103 562 q 122 577 144 582 q 165 587 194 587 q 274 587 305 535 q 336 483 336 357 l 335 302 l 99 302 l 99 210 q 99 108 120 69 q 142 31 193 31 q 208 31 219 33 q 229 35 243 42 q 256 49 264 61 q 272 74 278 97 q 284 120 284 152 l 284 195 l 336 195 l 336 157 q 336 77 303 34 q 271 -9 193 -9 z"},"b":{"x_min":0,"x_max":397,"ha":397,"o":"m 209 32 q 262 32 280 79 q 298 125 298 236 l 298 349 q 298 458 281 502 q 264 546 210 546 q 159 546 110 492 l 110 84 q 153 32 209 32 z m 216 -9 q 156 -9 110 48 l 110 0 l 57 0 l 57 810 l 110 810 l 110 529 q 155 587 221 587 q 252 587 276 576 q 299 565 313 545 q 328 526 336 495 q 345 464 348 429 q 352 395 352 349 l 352 238 q 352 111 321 51 q 291 -9 216 -9 z"},"%":{"x_min":0,"x_max":636,"ha":636,"o":"m 156 0 l 433 820 l 481 820 l 206 0 z m 390 130 l 390 272 q 390 406 492 406 q 594 406 594 273 l 594 129 q 594 -6 492 -6 q 390 -6 390 130 z m 492 35 q 545 35 545 127 l 545 274 q 545 364 492 364 q 438 364 438 274 l 438 127 q 438 82 450 59 q 462 35 492 35 z m 145 417 q 42 417 42 554 l 42 696 q 42 830 145 830 q 246 830 246 697 l 246 553 q 246 417 145 417 z m 145 459 q 198 459 198 551 l 198 698 q 198 788 145 788 q 115 788 103 765 q 91 741 91 698 l 91 551 q 91 506 103 482 q 115 459 145 459 z"},"m":{"x_min":0,"x_max":623,"ha":623,"o":"m 57 0 l 57 578 l 107 578 l 107 517 q 135 551 170 569 q 205 588 243 588 q 315 588 333 511 q 361 548 398 568 q 435 588 474 588 q 516 588 543 558 q 570 528 570 457 l 570 0 l 519 0 l 519 458 q 519 511 502 531 q 486 550 457 550 q 396 550 337 482 q 339 471 339 457 l 339 0 l 288 0 l 288 458 q 288 511 271 531 q 255 550 226 550 q 196 550 166 532 q 135 515 107 483 l 107 0 z"},"#":{"x_min":0,"x_max":453,"ha":453,"o":"m 167 331 l 271 331 l 299 499 l 194 499 z m 64 0 l 110 292 l 47 292 l 47 331 l 117 331 l 144 499 l 65 499 l 65 538 l 150 538 l 194 810 l 244 810 l 201 538 l 305 538 l 349 810 l 399 810 l 355 538 l 413 538 l 413 499 l 350 499 l 322 331 l 394 331 l 394 292 l 316 292 l 269 0 l 219 0 l 266 292 l 161 292 l 114 0 z"},",":{"x_min":0,"x_max":177,"ha":177,"o":"m 69 -107 l 55 -84 q 80 -66 89 -48 q 97 -31 97 0 l 61 0 l 61 105 l 125 105 l 125 11 q 125 -36 113 -61 q 101 -86 69 -107 z"},"n":{"x_min":0,"x_max":391,"ha":391,"o":"m 57 0 l 57 578 l 110 578 l 110 516 q 170 587 247 587 q 289 587 313 557 q 338 526 338 461 l 338 0 l 285 0 l 285 455 q 285 505 269 526 q 254 546 224 546 q 196 546 166 529 q 136 511 110 482 l 110 0 z"},"h":{"x_min":0,"x_max":392,"ha":392,"o":"m 57 0 l 57 810 l 110 810 l 110 517 q 171 587 248 587 q 289 587 314 557 q 339 526 339 461 l 339 0 l 285 0 l 285 455 q 285 505 270 526 q 254 546 225 546 q 169 546 110 482 l 110 0 z"},"z":{"x_min":0,"x_max":325,"ha":325,"o":"m 32 0 l 32 39 l 241 537 l 54 537 l 54 578 l 295 578 l 295 543 l 88 41 l 292 41 l 292 0 z"},"B":{"x_min":0,"x_max":488,"ha":488,"o":"m 129 455 l 266 455 q 298 455 321 467 q 344 479 356 500 q 368 522 373 548 q 378 574 378 608 q 378 637 375 659 q 372 681 363 702 q 353 724 337 737 q 320 750 293 758 q 267 766 229 766 l 129 766 z m 129 43 l 259 43 q 336 43 365 88 q 394 132 394 235 q 394 412 267 412 l 129 412 z m 75 0 l 75 810 l 242 810 q 285 810 318 799 q 352 789 372 771 q 393 753 406 727 q 419 701 424 672 q 429 644 429 608 q 429 581 425 556 q 421 531 411 506 q 401 480 382 462 q 362 443 334 437 q 368 427 391 404 q 415 382 426 352 q 438 322 442 294 q 447 266 447 236 q 447 203 444 176 q 441 149 435 121 q 428 93 415 72 q 402 51 382 34 q 363 18 333 9 q 304 0 266 0 z"},"K":{"x_min":0,"x_max":460,"ha":460,"o":"m 74 0 l 74 810 l 129 810 l 129 355 l 364 810 l 418 810 l 247 467 l 459 0 l 405 0 l 208 434 l 129 290 l 129 0 z"},"R":{"x_min":0,"x_max":508,"ha":508,"o":"m 129 450 l 269 450 q 307 450 332 460 q 357 471 371 493 q 385 515 390 543 q 396 570 396 610 q 396 692 368 729 q 341 767 268 767 l 129 767 z m 75 0 l 75 810 l 271 810 q 313 810 345 799 q 376 789 396 772 q 416 754 428 728 q 440 702 445 674 q 449 646 449 610 q 449 581 446 557 q 443 532 435 508 q 427 484 414 466 q 401 449 380 436 q 358 423 330 418 l 460 0 l 406 0 l 280 408 l 129 408 l 129 0 z"},"T":{"x_min":0,"x_max":380,"ha":380,"o":"m 165 0 l 165 766 l -7 766 l -7 810 l 387 810 l 387 766 l 219 766 l 219 0 z"},"P":{"x_min":0,"x_max":485,"ha":485,"o":"m 129 429 l 254 429 q 329 429 363 469 q 397 508 397 601 q 397 697 366 732 q 334 768 255 768 l 129 768 z m 75 0 l 75 810 l 265 810 q 318 810 355 794 q 393 779 414 750 q 435 721 444 684 q 453 648 453 601 q 453 567 448 537 q 442 507 429 479 q 415 451 394 431 q 374 411 341 399 q 308 387 266 387 l 129 387 l 129 0 z"},"|":{"x_min":0,"x_max":204,"ha":204,"o":"m 77 -141 l 77 810 l 127 810 l 127 -141 z"},"t":{"x_min":0,"x_max":263,"ha":263,"o":"m 184 -6 q 160 -6 143 0 q 126 6 116 16 q 106 26 101 43 q 95 59 94 75 q 92 92 92 114 l 92 543 l 16 543 l 16 578 l 92 578 l 92 763 l 145 763 l 145 578 l 243 578 l 243 543 l 145 543 l 145 121 q 145 71 154 53 q 164 36 195 36 q 210 36 238 41 l 238 0 q 213 -6 184 -6 z"},"M":{"x_min":0,"x_max":632,"ha":632,"o":"m 65 0 l 89 810 l 143 810 l 314 79 l 488 810 l 544 810 l 567 0 l 520 0 l 500 679 l 335 0 l 295 0 l 132 678 l 112 0 z"},"g":{"x_min":0,"x_max":429,"ha":429,"o":"m 207 223 q 317 223 317 388 q 317 409 315 428 q 312 448 304 471 q 297 493 285 510 q 273 526 253 537 q 232 548 206 548 q 180 548 159 537 q 138 525 126 508 q 114 490 106 468 q 99 445 96 426 q 93 406 93 388 q 93 367 95 347 q 98 327 105 303 q 112 280 124 263 q 136 246 157 234 q 178 223 207 223 z m 202 -153 q 265 -153 304 -132 q 343 -111 343 -69 q 343 -46 334 -31 q 325 -17 297 -3 q 269 10 216 21 l 153 32 q 61 -21 61 -81 q 61 -153 202 -153 z m 202 -196 q 15 -196 15 -94 q 15 -53 45 -17 q 76 19 118 41 q 91 47 70 59 q 48 71 48 84 q 48 127 120 209 q 44 262 44 388 q 44 425 54 460 q 63 494 82 523 q 101 552 132 570 q 164 587 205 587 q 292 587 333 510 q 343 530 365 549 q 387 568 411 578 l 425 583 l 440 543 q 415 537 388 521 q 362 504 347 485 q 354 466 360 436 q 366 406 366 387 q 366 295 327 239 q 288 184 207 184 q 171 184 145 194 q 142 189 126 166 q 110 143 102 127 q 94 111 94 101 q 94 91 142 81 q 158 76 194 69 q 230 62 236 61 q 312 44 350 15 q 388 -15 388 -68 q 388 -101 373 -126 q 358 -151 332 -166 q 306 -181 273 -188 q 240 -196 202 -196 z"},"j":{"x_min":0,"x_max":202,"ha":202,"o":"m 81 654 l 81 746 l 134 746 l 134 654 z m -16 -153 l -16 -110 q -12 -111 8 -111 q 28 -111 42 -106 q 56 -101 63 -94 q 71 -86 75 -73 q 79 -61 80 -51 q 81 -41 81 -25 l 81 578 l 134 578 l 134 -28 q 134 -95 103 -125 q 73 -155 14 -155 q -10 -155 -16 -153 z"},"i":{"x_min":0,"x_max":189,"ha":189,"o":"m 65 654 l 65 746 l 119 746 l 119 654 z m 65 0 l 65 578 l 119 578 l 119 0 z"},"y":{"x_min":0,"x_max":375,"ha":375,"o":"m 37 -144 l 37 -101 q 88 -101 116 -93 q 144 -84 153 -71 q 162 -57 162 -34 q 162 -26 162 -21 q 160 -6 145 59 q 117 175 24 578 l 76 578 l 190 50 l 300 578 l 353 578 l 212 -47 q 200 -99 165 -121 q 129 -144 59 -144 z"},"@":{"x_min":0,"x_max":805,"ha":805,"o":"m 381 166 q 417 167 447 197 q 477 228 496 281 l 533 545 q 507 563 474 563 q 441 563 409 545 q 377 526 352 493 q 326 460 310 409 q 293 357 293 297 q 293 227 317 197 q 341 166 376 166 z m 443 -99 q 59 -99 59 332 q 59 427 78 506 q 98 585 133 641 q 167 696 215 734 q 262 772 318 790 q 373 809 435 809 l 440 809 q 604 809 685 716 q 766 622 766 436 q 766 409 765 396 q 762 332 747 282 q 732 233 711 206 q 691 178 665 160 q 638 142 617 136 q 595 131 575 131 q 543 131 519 153 q 494 175 494 214 q 494 220 495 224 q 478 181 447 154 q 416 126 375 125 l 371 125 q 312 125 277 170 q 241 215 241 298 q 241 365 261 423 q 281 482 313 521 q 345 560 386 583 q 427 605 469 605 q 509 605 542 580 l 550 600 l 590 600 l 544 265 q 541 237 541 222 q 541 195 551 182 q 560 168 584 168 q 599 168 615 174 q 630 179 648 194 q 667 209 682 233 q 696 257 707 298 q 718 340 721 393 q 722 409 722 439 q 722 531 702 595 q 682 660 644 697 q 606 734 556 751 q 507 767 441 767 l 434 767 q 364 766 305 737 q 246 708 202 654 q 158 601 133 518 q 108 436 108 333 q 108 262 119 204 q 130 146 149 107 q 167 67 194 37 q 221 6 250 -11 q 278 -29 313 -40 q 349 -50 380 -54 q 411 -58 446 -58 q 534 -58 631 -33 l 645 -72 q 521 -99 443 -99 z"},".":{"x_min":0,"x_max":177,"ha":177,"o":"m 66 0 l 66 104 l 125 104 l 125 0 z"},"p":{"x_min":0,"x_max":400,"ha":400,"o":"m 210 32 q 262 32 281 79 q 299 125 299 236 l 299 349 q 299 458 281 502 q 264 546 210 546 q 159 546 110 492 l 110 84 q 154 32 210 32 z m 57 -190 l 57 578 l 110 578 l 110 529 q 156 587 221 587 q 260 587 286 571 q 312 555 326 522 q 340 489 346 448 q 352 407 352 349 l 352 238 q 352 111 322 51 q 292 -9 216 -9 q 157 -9 110 48 l 110 -190 z"},"X":{"x_min":0,"x_max":452,"ha":452,"o":"m 15 0 l 193 420 l 16 810 l 66 810 l 225 464 l 380 810 l 434 810 l 249 412 l 438 0 l 385 0 l 218 364 l 69 0 z"},"*":{"x_min":0,"x_max":356,"ha":356,"o":"m 100 492 l 66 514 l 158 634 l 29 686 l 43 721 l 168 661 l 162 809 l 205 809 l 197 661 l 320 721 l 334 686 l 206 634 l 298 512 l 264 492 l 182 620 z"},"Y":{"x_min":0,"x_max":462,"ha":462,"o":"m 207 0 l 207 259 l 20 810 l 76 810 l 235 324 l 386 810 l 442 810 l 261 259 l 261 0 z"},"c":{"x_min":0,"x_max":375,"ha":375,"o":"m 192 -9 q 154 -9 127 3 q 100 15 84 34 q 69 53 60 84 q 51 115 49 145 q 46 175 46 217 l 46 353 q 46 483 77 535 q 109 587 192 587 q 227 587 253 578 q 278 568 293 552 q 309 537 318 512 q 327 487 330 461 q 333 435 333 400 l 333 377 l 283 377 l 283 400 q 283 485 262 516 q 242 547 192 547 q 136 547 117 507 q 99 467 99 359 l 99 209 q 99 111 118 71 q 138 31 193 31 q 249 31 266 66 q 283 102 283 194 l 283 216 l 333 216 l 333 195 q 333 167 332 147 q 331 126 327 104 q 324 82 317 66 q 311 50 301 35 q 290 20 275 11 q 261 1 240 -4 q 218 -9 192 -9 z"},"!":{"x_min":0,"x_max":197,"ha":197,"o":"m 89 174 l 69 810 l 129 810 l 108 174 z m 68 0 l 68 74 l 128 74 l 128 0 z"},"/":{"x_min":0,"x_max":329,"ha":329,"o":"m 21 0 l 260 810 l 307 810 l 69 0 z"},"[":{"x_min":0,"x_max":279,"ha":279,"o":"m 74 -145 l 74 810 l 221 810 l 221 777 l 128 777 l 128 -112 l 221 -112 l 221 -145 z"},"6":{"x_min":0,"x_max":492,"ha":492,"o":"m 253 34 q 287 34 310 42 q 333 51 351 71 q 368 92 376 128 q 385 165 385 219 q 385 269 382 300 q 379 332 371 359 q 363 386 348 400 q 333 414 311 422 q 288 429 253 429 q 221 429 184 416 q 147 402 126 388 l 126 237 q 126 178 134 138 q 142 98 159 76 q 176 53 198 44 q 221 34 253 34 z m 253 -11 q 159 -11 116 50 q 73 111 73 236 l 73 589 q 73 819 252 819 q 341 819 383 774 q 424 730 425 637 l 425 618 l 374 618 q 374 706 346 740 q 319 775 256 775 q 227 775 205 767 q 183 758 165 739 q 146 720 136 685 q 126 650 126 600 l 126 429 q 152 445 189 458 q 226 472 264 472 q 305 472 333 464 q 362 456 383 438 q 404 421 416 392 q 428 363 434 323 q 439 282 439 226 q 439 109 395 49 q 351 -11 253 -11 z"},"r":{"x_min":0,"x_max":283,"ha":283,"o":"m 64 0 l 64 578 l 117 578 l 117 500 q 142 541 180 562 q 218 584 254 584 q 254 584 259 584 q 263 583 264 583 l 264 528 q 255 531 242 531 q 161 531 117 457 l 117 0 z"},"2":{"x_min":0,"x_max":489,"ha":489,"o":"m 54 0 l 54 40 l 279 382 q 327 455 342 485 q 375 553 375 623 q 375 694 343 734 q 311 774 252 774 q 210 774 182 761 q 153 748 138 723 q 123 697 117 667 q 111 636 110 593 l 110 580 l 58 580 l 58 596 q 58 709 104 764 q 150 819 250 819 q 336 819 382 765 q 428 712 428 615 q 428 581 420 548 q 413 515 396 481 q 378 447 365 424 q 352 402 327 365 l 115 45 l 412 45 l 412 0 z"},"{":{"x_min":0,"x_max":232,"ha":232,"o":"m 214 -149 q 196 -149 183 -148 q 169 -148 157 -145 q 146 -142 137 -139 q 129 -137 122 -129 q 115 -121 111 -115 q 107 -109 104 -95 q 101 -81 99 -70 q 98 -59 97 -37 q 96 -15 95 3 q 95 21 95 53 l 95 175 q 95 259 84 287 q 73 314 37 314 l 37 360 q 73 360 84 388 q 95 416 95 500 l 95 616 q 95 647 95 665 q 96 683 97 705 q 98 727 99 738 q 101 750 104 763 q 107 777 111 783 q 115 790 122 797 q 129 805 137 808 q 146 811 157 813 q 169 816 183 817 q 196 817 214 817 l 214 777 q 165 777 156 755 q 147 732 147 616 l 147 484 q 147 410 136 378 q 124 347 93 337 q 124 328 136 296 q 147 265 147 190 l 147 53 q 147 -63 156 -86 q 165 -108 214 -108 z"},"9":{"x_min":0,"x_max":492,"ha":492,"o":"m 248 379 q 322 379 374 420 l 374 571 q 374 649 359 695 q 345 740 319 757 q 292 774 249 774 q 182 774 149 732 q 116 690 116 589 q 116 540 119 508 q 122 476 129 449 q 137 422 152 408 q 167 394 190 386 q 213 379 248 379 z m 252 -11 q 163 -11 119 34 q 76 79 76 172 l 76 190 l 127 190 q 127 102 155 67 q 183 33 253 33 q 282 33 303 41 q 324 49 341 69 q 357 88 366 123 q 374 158 374 208 l 374 379 q 354 362 320 349 q 285 336 236 336 q 137 336 99 390 q 61 444 61 583 q 61 699 106 759 q 151 819 249 819 q 343 819 385 758 q 427 697 427 572 l 427 219 q 427 107 386 48 q 344 -11 252 -11 z"}," ":{"x_min":0,"x_max":189,"ha":189,"o":""},"I":{"x_min":0,"x_max":206,"ha":206,"o":"m 76 0 l 76 810 l 130 810 l 130 0 z"},"H":{"x_min":0,"x_max":542,"ha":542,"o":"m 74 0 l 74 810 l 129 810 l 129 445 l 413 445 l 413 810 l 467 810 l 467 0 l 413 0 l 413 403 l 129 403 l 129 0 z"},"4":{"x_min":0,"x_max":493,"ha":493,"o":"m 112 298 l 306 298 l 306 732 z m 306 0 l 306 249 l 56 249 l 56 300 l 297 810 l 359 810 l 359 298 l 453 298 l 453 249 l 359 249 l 359 0 z"},"~":{"x_min":0,"x_max":382,"ha":382,"o":"m 257 381 q 237 381 189 409 q 141 436 126 436 q 103 436 60 395 l 41 419 q 90 476 129 476 q 149 476 197 449 q 244 422 258 422 q 271 422 284 430 q 296 437 322 458 l 342 434 q 290 381 257 381 z"},"D":{"x_min":0,"x_max":517,"ha":517,"o":"m 75 0 l 75 810 l 252 810 q 311 810 352 792 q 394 774 417 742 q 439 709 449 669 q 459 628 459 577 l 459 241 q 459 186 449 144 q 439 102 417 69 q 395 35 354 18 q 314 0 257 0 z m 129 43 l 254 43 q 292 43 320 54 q 348 65 364 83 q 380 100 389 128 q 398 156 401 183 q 404 210 404 247 l 404 573 q 404 610 400 639 q 396 667 386 692 q 376 717 359 732 q 342 748 315 757 q 289 766 252 766 l 129 766 z"},"^":{"x_min":0,"x_max":365,"ha":365,"o":"m 26 525 l 154 810 l 211 810 l 339 525 l 294 525 l 183 776 l 71 525 z"},"0":{"x_min":0,"x_max":493,"ha":493,"o":"m 246 -11 q 203 -11 170 1 q 137 13 116 33 q 95 54 82 84 q 68 115 63 149 q 58 184 58 228 l 58 582 q 58 636 67 678 q 77 720 98 752 q 119 785 156 802 q 194 819 246 819 q 298 819 336 802 q 374 785 395 752 q 416 720 426 678 q 435 636 435 582 l 435 228 q 435 172 426 131 q 417 90 397 57 q 376 24 339 7 q 301 -11 246 -11 z m 246 30 q 319 30 349 80 q 380 129 380 219 l 380 590 q 380 680 349 729 q 319 778 246 778 q 174 778 143 729 q 112 679 112 590 l 112 219 q 112 176 119 143 q 125 110 141 84 q 156 58 182 44 q 208 30 246 30 z"},"F":{"x_min":0,"x_max":383,"ha":383,"o":"m 75 0 l 75 810 l 354 810 l 354 767 l 129 767 l 129 441 l 323 441 l 323 399 l 129 399 l 129 0 z"},"`":{"x_min":0,"x_max":209,"ha":209,"o":"m 131 616 l 50 810 l 104 810 l 159 616 z"},"k":{"x_min":0,"x_max":383,"ha":383,"o":"m 57 0 l 57 810 l 110 810 l 110 276 l 325 578 l 382 578 l 230 357 l 374 0 l 320 0 l 190 325 l 110 217 l 110 0 z"},"u":{"x_min":0,"x_max":395,"ha":395,"o":"m 143 -9 q 101 -9 76 21 q 52 52 52 117 l 52 578 l 105 578 l 105 123 q 105 73 120 52 q 136 32 166 32 q 195 32 226 51 q 257 70 285 102 l 285 578 l 337 578 l 337 0 l 285 0 l 285 68 q 256 32 219 11 q 183 -9 143 -9 z"},"]":{"x_min":0,"x_max":270,"ha":270,"o":"m 49 -144 l 49 -112 l 142 -112 l 142 777 l 49 777 l 49 810 l 196 810 l 196 -144 z"},"U":{"x_min":0,"x_max":533,"ha":533,"o":"m 267 -11 q 209 -11 169 4 q 128 19 106 47 q 84 75 75 110 q 65 145 65 190 l 65 810 l 119 810 l 119 189 q 119 153 125 127 q 132 100 149 78 q 165 57 195 45 q 224 34 267 34 q 415 34 415 189 l 415 810 l 468 810 l 468 190 q 468 -11 267 -11 z"},"o":{"x_min":0,"x_max":383,"ha":383,"o":"m 46 211 l 46 367 q 46 481 77 534 q 109 587 191 587 q 234 587 262 574 q 291 560 307 531 q 324 502 330 463 q 337 424 337 367 l 337 211 q 337 96 306 43 q 274 -9 191 -9 q 108 -9 77 43 q 46 96 46 211 z m 284 209 l 284 369 q 284 407 282 431 q 281 455 275 479 q 270 503 260 517 q 250 531 233 539 q 216 547 191 547 q 167 547 149 539 q 132 531 123 517 q 113 503 107 479 q 102 455 101 431 q 99 407 99 369 l 99 209 q 99 178 100 157 q 101 136 104 114 q 107 91 114 78 q 120 64 130 52 q 140 41 156 36 q 171 31 191 31 q 212 31 227 36 q 243 41 253 52 q 263 64 269 78 q 275 91 279 114 q 282 136 283 157 q 284 178 284 209 z"},"N":{"x_min":0,"x_max":515,"ha":515,"o":"m 75 0 l 75 810 l 118 810 l 393 126 l 393 810 l 441 810 l 441 0 l 398 0 l 123 685 l 123 0 z"},"+":{"x_min":0,"x_max":364,"ha":364,"o":"m 161 240 l 161 396 l 22 396 l 22 436 l 161 436 l 161 588 l 202 588 l 202 436 l 341 436 l 341 396 l 202 396 l 202 240 z"},"G":{"x_min":0,"x_max":510,"ha":510,"o":"m 252 -11 q 207 -11 173 1 q 139 13 117 34 q 95 55 82 87 q 68 119 63 154 q 58 190 58 235 l 58 579 q 58 624 63 659 q 68 694 82 725 q 96 755 118 776 q 140 796 175 807 q 209 819 255 819 q 356 819 399 760 q 442 701 442 588 l 442 560 l 390 560 l 390 591 q 390 685 361 730 q 331 774 255 774 q 220 774 195 765 q 169 755 154 739 q 138 723 129 698 q 120 672 116 645 q 113 617 113 581 l 113 228 q 113 181 119 147 q 125 114 141 87 q 157 61 185 47 q 214 34 256 34 q 295 34 323 47 q 350 60 365 85 q 379 111 386 145 q 392 178 392 225 l 392 344 l 263 344 l 263 386 l 443 386 l 443 0 l 408 0 l 400 91 q 368 -11 252 -11 z"},"q":{"x_min":0,"x_max":396,"ha":396,"o":"m 192 32 q 243 32 287 82 l 287 495 q 239 546 190 546 q 137 546 119 503 q 102 460 102 353 l 102 233 q 102 124 120 78 q 139 32 192 32 z m 287 -190 l 287 44 q 243 -9 184 -9 q 110 -9 79 48 q 48 104 48 237 l 48 340 q 48 469 77 528 q 105 587 182 587 q 244 587 287 533 l 287 578 l 340 578 l 340 -190 z"},"d":{"x_min":0,"x_max":395,"ha":395,"o":"m 189 32 q 241 32 284 81 l 284 496 q 235 546 188 546 q 134 546 117 503 q 99 460 99 353 l 99 233 q 99 124 118 78 q 137 32 189 32 z m 182 -9 q 107 -9 77 48 q 46 104 46 237 l 46 340 q 46 469 74 528 q 103 587 179 587 q 240 587 284 534 l 284 810 l 337 810 l 337 0 l 284 0 l 284 44 q 240 -9 182 -9 z"},"1":{"x_min":0,"x_max":403,"ha":403,"o":"m 208 0 l 208 737 q 193 714 157 697 q 121 679 92 670 l 92 716 q 121 724 157 750 q 193 776 216 810 l 262 810 l 262 0 z"},"5":{"x_min":0,"x_max":488,"ha":488,"o":"m 251 -9 q 163 -9 122 42 q 81 94 81 198 l 133 198 q 133 112 161 72 q 190 33 254 33 q 324 33 352 83 q 379 133 379 248 q 379 332 365 380 q 351 429 325 448 q 299 466 256 466 q 187 466 142 398 l 99 398 l 99 810 l 393 810 l 392 764 l 144 764 l 142 449 q 184 508 270 508 q 354 508 392 444 q 431 380 431 253 q 431 118 388 54 q 344 -9 251 -9 z"}}}
